# xmcd CD database file
#
# Track frame offsets:
#	150
#	102762
#	168511
#	171709
#	228723
#
# Disc length: 3752 seconds
#
# Revision: 0
# Processed by: cddbd v1.5.1PL0 Copyright (c) Steve Scherf et al.
# Submitted via: CDex 1.51
#
DISCID=400ea605
DTITLE=Kenny Garrett Quartet - Live at Vardan's [CD2]
DYEAR=2001
DGENRE=Jazz
TTITLE0=XYZ
TTITLE1=Tango In Six
TTITLE2=Commentary
TTITLE3=Song Number Eight
TTITLE4=Back Where You Started
EXTD=YEAR: 2001
EXTT0=
EXTT1=
EXTT2=
EXTT3=
EXTT4=
PLAYORDER=
